# xmcd CD database file
#
# Track frame offsets:
#	150
#	29240
#	59220
#	90585
#	112625
#	143177
#	169757
#	197930
#	226295
#	252305
#	271635
#
# Disc length: 3968 seconds
#
# Revision: 0
# Processed by: cddbd v1.5.2PL0 Copyright (c) Steve Scherf et al.
# Submitted via: CDex 1.70beta2
#
DISCID=9a0f7e0b
DTITLE=Melvin Lee Davis - Variations In Time
DYEAR=1998
DGENRE=Jazz
TTITLE0=Sao Paulo
TTITLE1=Lyle
TTITLE2=Song fo Don (Grolnick)
TTITLE3=Uruguay
TTITLE4=O Vento
TTITLE5=Blues of Another Kind
TTITLE6=Steps
TTITLE7=And Then Some
TTITLE8=War Between Friends
TTITLE9=Autumn
TTITLE10=King Of Pain
EXTD=YEAR: 1998
EXTT0=
EXTT1=
EXTT2=
EXTT3=
EXTT4=
EXTT5=
EXTT6=
EXTT7=
EXTT8=
EXTT9=
EXTT10=
PLAYORDER=
